<svg xmlns="http://www.w3.org/2000/svg" width="38" height="38" viewBox="0 0 38 38">
    <g fill="none" fill-rule="evenodd">
        <circle cx="19" cy="19" r="19" fill="#FFF"/>
        <g>
            <path d="M0.923 0.923H23.076999999999998V23.076999999999998H0.923z" transform="translate(7 7)"/>
            <path fill="#000" fill-rule="nonzero" d="M12.024 4.96c.89 0 2.007-.589 2.671-1.374.603-.711 1.042-1.705 1.042-2.698 0-.135-.013-.27-.038-.38-.991.036-2.183.65-2.898 1.471-.564.626-1.078 1.607-1.078 2.613 0 .147.025.294.037.343.063.012.163.025.264.025zM8.888 19.8c1.217 0 1.756-.797 3.274-.797 1.543 0 1.881.772 3.236.772 1.33 0 2.22-1.201 3.06-2.379.941-1.349 1.33-2.674 1.355-2.735-.088-.024-2.634-1.042-2.634-3.9 0-2.478 2.007-3.594 2.12-3.68-1.33-1.864-3.35-1.913-3.901-1.913-1.493 0-2.71.883-3.475.883-.827 0-1.919-.834-3.21-.834-2.46 0-4.955 1.987-4.955 5.74 0 2.33.928 4.796 2.07 6.39.978 1.35 1.83 2.453 3.06 2.453z" transform="translate(7 7)"/>
        </g>
    </g>
</svg>
